<mxfile host="65bd71144e">
    <diagram id="C5RBs43oDa-KdzZeNtuy" name="Page-1">
        <mxGraphModel dx="1216" dy="779" grid="1" gridSize="10" guides="1" tooltips="1" connect="1" arrows="1" fold="1" page="1" pageScale="1" pageWidth="827" pageHeight="1169" math="0" shadow="0">
            <root>
                <mxCell id="WIyWlLk6GJQsqaUBKTNV-0"/>
                <mxCell id="WIyWlLk6GJQsqaUBKTNV-1" parent="WIyWlLk6GJQsqaUBKTNV-0"/>
                <mxCell id="ZOqMEY8nHoL99eGyLQIH-0" value="Livro" style="swimlane;fontStyle=1;align=center;verticalAlign=top;childLayout=stackLayout;horizontal=1;startSize=26;horizontalStack=0;resizeParent=1;resizeParentMax=0;resizeLast=0;collapsible=1;marginBottom=0;whiteSpace=wrap;html=1;" parent="WIyWlLk6GJQsqaUBKTNV-1" vertex="1">
                    <mxGeometry x="610" y="300" width="160" height="250" as="geometry"/>
                </mxCell>
                <mxCell id="ZOqMEY8nHoL99eGyLQIH-1" value="- titulo: str&lt;div&gt;- resumo: str&lt;br&gt;&lt;/div&gt;&lt;div&gt;- autor: str&lt;br&gt;&lt;/div&gt;&lt;div&gt;- ano: int&lt;/div&gt;&lt;div&gt;- protagonista: str&lt;/div&gt;&lt;div&gt;&lt;span style=&quot;background-color: initial;&quot;&gt;- faixa_etaria: str&lt;/span&gt;&lt;/div&gt;" style="text;strokeColor=none;fillColor=none;align=left;verticalAlign=top;spacingLeft=4;spacingRight=4;overflow=hidden;rotatable=0;points=[[0,0.5],[1,0.5]];portConstraint=eastwest;whiteSpace=wrap;html=1;" parent="ZOqMEY8nHoL99eGyLQIH-0" vertex="1">
                    <mxGeometry y="26" width="160" height="104" as="geometry"/>
                </mxCell>
                <mxCell id="ZOqMEY8nHoL99eGyLQIH-2" value="" style="line;strokeWidth=1;fillColor=none;align=left;verticalAlign=middle;spacingTop=-1;spacingLeft=3;spacingRight=3;rotatable=0;labelPosition=right;points=[];portConstraint=eastwest;strokeColor=inherit;" parent="ZOqMEY8nHoL99eGyLQIH-0" vertex="1">
                    <mxGeometry y="130" width="160" height="8" as="geometry"/>
                </mxCell>
                <mxCell id="ZOqMEY8nHoL99eGyLQIH-3" value="+ titulo(): str&lt;div&gt;+ resumo(): str&lt;br&gt;&lt;/div&gt;&lt;div&gt;+ autor(): Autor&lt;br&gt;&lt;/div&gt;&lt;div&gt;+ ano(): int&lt;br&gt;&lt;/div&gt;&lt;div&gt;+ protagonista: str&lt;br&gt;&lt;/div&gt;&lt;div&gt;+ genero(): Genero&lt;/div&gt;&lt;div&gt;+ faixa_etaria: str&lt;/div&gt;" style="text;strokeColor=none;fillColor=none;align=left;verticalAlign=top;spacingLeft=4;spacingRight=4;overflow=hidden;rotatable=0;points=[[0,0.5],[1,0.5]];portConstraint=eastwest;whiteSpace=wrap;html=1;" parent="ZOqMEY8nHoL99eGyLQIH-0" vertex="1">
                    <mxGeometry y="138" width="160" height="112" as="geometry"/>
                </mxCell>
                <mxCell id="lQfqgUbQz27Wbsf5OLIO-2" style="edgeStyle=orthogonalEdgeStyle;rounded=0;orthogonalLoop=1;jettySize=auto;html=1;entryX=0.5;entryY=0;entryDx=0;entryDy=0;" parent="WIyWlLk6GJQsqaUBKTNV-1" source="ZOqMEY8nHoL99eGyLQIH-4" target="ZOqMEY8nHoL99eGyLQIH-8" edge="1">
                    <mxGeometry relative="1" as="geometry"/>
                </mxCell>
                <mxCell id="ZOqMEY8nHoL99eGyLQIH-4" value="Pessoa" style="swimlane;fontStyle=1;align=center;verticalAlign=top;childLayout=stackLayout;horizontal=1;startSize=26;horizontalStack=0;resizeParent=1;resizeParentMax=0;resizeLast=0;collapsible=1;marginBottom=0;whiteSpace=wrap;html=1;" parent="WIyWlLk6GJQsqaUBKTNV-1" vertex="1">
                    <mxGeometry x="150" y="130" width="160" height="210" as="geometry"/>
                </mxCell>
                <mxCell id="ZOqMEY8nHoL99eGyLQIH-5" value="- nome: str&lt;div&gt;- telefone: str&lt;br&gt;&lt;/div&gt;&lt;div&gt;- email: str&lt;br&gt;&lt;/div&gt;" style="text;strokeColor=none;fillColor=none;align=left;verticalAlign=top;spacingLeft=4;spacingRight=4;overflow=hidden;rotatable=0;points=[[0,0.5],[1,0.5]];portConstraint=eastwest;whiteSpace=wrap;html=1;" parent="ZOqMEY8nHoL99eGyLQIH-4" vertex="1">
                    <mxGeometry y="26" width="160" height="64" as="geometry"/>
                </mxCell>
                <mxCell id="ZOqMEY8nHoL99eGyLQIH-6" value="" style="line;strokeWidth=1;fillColor=none;align=left;verticalAlign=middle;spacingTop=-1;spacingLeft=3;spacingRight=3;rotatable=0;labelPosition=right;points=[];portConstraint=eastwest;strokeColor=inherit;" parent="ZOqMEY8nHoL99eGyLQIH-4" vertex="1">
                    <mxGeometry y="90" width="160" height="8" as="geometry"/>
                </mxCell>
                <mxCell id="ZOqMEY8nHoL99eGyLQIH-7" value="+ emprestar(Livro): void&lt;div&gt;+ devolver(Livro): void&lt;/div&gt;&lt;div&gt;+ nome(): str&lt;/div&gt;&lt;div&gt;+ telefone(): str&lt;/div&gt;&lt;div&gt;+ email(): str&lt;/div&gt;&lt;div&gt;+ emprestimos(): list&lt;/div&gt;" style="text;strokeColor=none;fillColor=none;align=left;verticalAlign=top;spacingLeft=4;spacingRight=4;overflow=hidden;rotatable=0;points=[[0,0.5],[1,0.5]];portConstraint=eastwest;whiteSpace=wrap;html=1;" parent="ZOqMEY8nHoL99eGyLQIH-4" vertex="1">
                    <mxGeometry y="98" width="160" height="112" as="geometry"/>
                </mxCell>
                <mxCell id="ZOqMEY8nHoL99eGyLQIH-8" value="Emprestimo" style="swimlane;fontStyle=1;align=center;verticalAlign=top;childLayout=stackLayout;horizontal=1;startSize=26;horizontalStack=0;resizeParent=1;resizeParentMax=0;resizeLast=0;collapsible=1;marginBottom=0;whiteSpace=wrap;html=1;" parent="WIyWlLk6GJQsqaUBKTNV-1" vertex="1">
                    <mxGeometry x="150" y="541" width="160" height="180" as="geometry"/>
                </mxCell>
                <mxCell id="ZOqMEY8nHoL99eGyLQIH-9" value="- emprestador: Pessoa&lt;div&gt;- data_emprestimo: str&lt;br&gt;&lt;div&gt;- data_devolucao: str&lt;br&gt;&lt;/div&gt;&lt;/div&gt;" style="text;strokeColor=none;fillColor=none;align=left;verticalAlign=top;spacingLeft=4;spacingRight=4;overflow=hidden;rotatable=0;points=[[0,0.5],[1,0.5]];portConstraint=eastwest;whiteSpace=wrap;html=1;" parent="ZOqMEY8nHoL99eGyLQIH-8" vertex="1">
                    <mxGeometry y="26" width="160" height="74" as="geometry"/>
                </mxCell>
                <mxCell id="ZOqMEY8nHoL99eGyLQIH-10" value="" style="line;strokeWidth=1;fillColor=none;align=left;verticalAlign=middle;spacingTop=-1;spacingLeft=3;spacingRight=3;rotatable=0;labelPosition=right;points=[];portConstraint=eastwest;strokeColor=inherit;" parent="ZOqMEY8nHoL99eGyLQIH-8" vertex="1">
                    <mxGeometry y="100" width="160" height="10" as="geometry"/>
                </mxCell>
                <mxCell id="ZOqMEY8nHoL99eGyLQIH-11" value="+ emprestador(): Pessoa&lt;div&gt;+ data_emprestimo(): str&lt;br&gt;&lt;/div&gt;&lt;div&gt;+ data_devolucao(): str&lt;br&gt;&lt;/div&gt;&lt;div&gt;+ livros(): list&lt;/div&gt;" style="text;strokeColor=none;fillColor=none;align=left;verticalAlign=top;spacingLeft=4;spacingRight=4;overflow=hidden;rotatable=0;points=[[0,0.5],[1,0.5]];portConstraint=eastwest;whiteSpace=wrap;html=1;" parent="ZOqMEY8nHoL99eGyLQIH-8" vertex="1">
                    <mxGeometry y="110" width="160" height="70" as="geometry"/>
                </mxCell>
                <mxCell id="ZOqMEY8nHoL99eGyLQIH-12" value="Autor" style="swimlane;fontStyle=1;align=center;verticalAlign=top;childLayout=stackLayout;horizontal=1;startSize=26;horizontalStack=0;resizeParent=1;resizeParentMax=0;resizeLast=0;collapsible=1;marginBottom=0;whiteSpace=wrap;html=1;" parent="WIyWlLk6GJQsqaUBKTNV-1" vertex="1">
                    <mxGeometry x="470" y="680" width="170" height="140" as="geometry"/>
                </mxCell>
                <mxCell id="ZOqMEY8nHoL99eGyLQIH-13" value="- nome: str&lt;div&gt;- qtd_livros: int&lt;/div&gt;" style="text;strokeColor=none;fillColor=none;align=left;verticalAlign=top;spacingLeft=4;spacingRight=4;overflow=hidden;rotatable=0;points=[[0,0.5],[1,0.5]];portConstraint=eastwest;whiteSpace=wrap;html=1;" parent="ZOqMEY8nHoL99eGyLQIH-12" vertex="1">
                    <mxGeometry y="26" width="170" height="54" as="geometry"/>
                </mxCell>
                <mxCell id="ZOqMEY8nHoL99eGyLQIH-14" value="" style="line;strokeWidth=1;fillColor=none;align=left;verticalAlign=middle;spacingTop=-1;spacingLeft=3;spacingRight=3;rotatable=0;labelPosition=right;points=[];portConstraint=eastwest;strokeColor=inherit;" parent="ZOqMEY8nHoL99eGyLQIH-12" vertex="1">
                    <mxGeometry y="80" width="170" height="8" as="geometry"/>
                </mxCell>
                <mxCell id="ZOqMEY8nHoL99eGyLQIH-15" value="&lt;div&gt;+ nome(): str&lt;br&gt;&lt;/div&gt;&lt;div&gt;+ qtd_livros(): int&lt;span style=&quot;color: rgba(0, 0, 0, 0); font-family: monospace; font-size: 0px; text-wrap: nowrap;&quot;&gt;&lt;br&gt;&lt;/span&gt;&lt;/div&gt;&lt;div&gt;+ livros(): list&lt;/div&gt;" style="text;strokeColor=none;fillColor=none;align=left;verticalAlign=top;spacingLeft=4;spacingRight=4;overflow=hidden;rotatable=0;points=[[0,0.5],[1,0.5]];portConstraint=eastwest;whiteSpace=wrap;html=1;" parent="ZOqMEY8nHoL99eGyLQIH-12" vertex="1">
                    <mxGeometry y="88" width="170" height="52" as="geometry"/>
                </mxCell>
                <mxCell id="ZOqMEY8nHoL99eGyLQIH-16" value="Genero" style="swimlane;fontStyle=1;align=center;verticalAlign=top;childLayout=stackLayout;horizontal=1;startSize=26;horizontalStack=0;resizeParent=1;resizeParentMax=0;resizeLast=0;collapsible=1;marginBottom=0;whiteSpace=wrap;html=1;" parent="WIyWlLk6GJQsqaUBKTNV-1" vertex="1">
                    <mxGeometry x="610" y="70" width="160" height="130" as="geometry"/>
                </mxCell>
                <mxCell id="ZOqMEY8nHoL99eGyLQIH-17" value="- nome: str&lt;div&gt;- descricao: str&lt;br&gt;&lt;/div&gt;" style="text;strokeColor=none;fillColor=none;align=left;verticalAlign=top;spacingLeft=4;spacingRight=4;overflow=hidden;rotatable=0;points=[[0,0.5],[1,0.5]];portConstraint=eastwest;whiteSpace=wrap;html=1;" parent="ZOqMEY8nHoL99eGyLQIH-16" vertex="1">
                    <mxGeometry y="26" width="160" height="54" as="geometry"/>
                </mxCell>
                <mxCell id="ZOqMEY8nHoL99eGyLQIH-18" value="" style="line;strokeWidth=1;fillColor=none;align=left;verticalAlign=middle;spacingTop=-1;spacingLeft=3;spacingRight=3;rotatable=0;labelPosition=right;points=[];portConstraint=eastwest;strokeColor=inherit;" parent="ZOqMEY8nHoL99eGyLQIH-16" vertex="1">
                    <mxGeometry y="80" width="160" height="8" as="geometry"/>
                </mxCell>
                <mxCell id="ZOqMEY8nHoL99eGyLQIH-19" value="+ nome(): str&lt;div&gt;+ descricao(): str&lt;br&gt;&lt;/div&gt;" style="text;strokeColor=none;fillColor=none;align=left;verticalAlign=top;spacingLeft=4;spacingRight=4;overflow=hidden;rotatable=0;points=[[0,0.5],[1,0.5]];portConstraint=eastwest;whiteSpace=wrap;html=1;" parent="ZOqMEY8nHoL99eGyLQIH-16" vertex="1">
                    <mxGeometry y="88" width="160" height="42" as="geometry"/>
                </mxCell>
                <mxCell id="lQfqgUbQz27Wbsf5OLIO-3" value="- emprestimos" style="text;html=1;align=center;verticalAlign=middle;resizable=0;points=[];autosize=1;strokeColor=none;fillColor=none;" parent="WIyWlLk6GJQsqaUBKTNV-1" vertex="1">
                    <mxGeometry x="230" y="511" width="100" height="30" as="geometry"/>
                </mxCell>
                <mxCell id="lQfqgUbQz27Wbsf5OLIO-4" value="*" style="text;html=1;align=center;verticalAlign=middle;resizable=0;points=[];autosize=1;strokeColor=none;fillColor=none;" parent="WIyWlLk6GJQsqaUBKTNV-1" vertex="1">
                    <mxGeometry x="200" y="511" width="30" height="30" as="geometry"/>
                </mxCell>
                <mxCell id="lQfqgUbQz27Wbsf5OLIO-5" value="1" style="text;html=1;align=center;verticalAlign=middle;resizable=0;points=[];autosize=1;strokeColor=none;fillColor=none;" parent="WIyWlLk6GJQsqaUBKTNV-1" vertex="1">
                    <mxGeometry x="200" y="360" width="30" height="30" as="geometry"/>
                </mxCell>
                <mxCell id="lQfqgUbQz27Wbsf5OLIO-6" style="edgeStyle=orthogonalEdgeStyle;rounded=0;orthogonalLoop=1;jettySize=auto;html=1;entryX=0;entryY=0.5;entryDx=0;entryDy=0;" parent="WIyWlLk6GJQsqaUBKTNV-1" source="ZOqMEY8nHoL99eGyLQIH-9" target="ZOqMEY8nHoL99eGyLQIH-1" edge="1">
                    <mxGeometry relative="1" as="geometry"/>
                </mxCell>
                <mxCell id="lQfqgUbQz27Wbsf5OLIO-7" value="*" style="text;html=1;align=center;verticalAlign=middle;resizable=0;points=[];autosize=1;strokeColor=none;fillColor=none;" parent="WIyWlLk6GJQsqaUBKTNV-1" vertex="1">
                    <mxGeometry x="580" y="410" width="30" height="30" as="geometry"/>
                </mxCell>
                <mxCell id="lQfqgUbQz27Wbsf5OLIO-8" value="- livros" style="text;html=1;align=center;verticalAlign=middle;resizable=0;points=[];autosize=1;strokeColor=none;fillColor=none;" parent="WIyWlLk6GJQsqaUBKTNV-1" vertex="1">
                    <mxGeometry x="550" y="380" width="60" height="30" as="geometry"/>
                </mxCell>
                <mxCell id="lQfqgUbQz27Wbsf5OLIO-9" style="edgeStyle=orthogonalEdgeStyle;rounded=0;orthogonalLoop=1;jettySize=auto;html=1;entryX=0.5;entryY=1.024;entryDx=0;entryDy=0;entryPerimeter=0;" parent="WIyWlLk6GJQsqaUBKTNV-1" source="ZOqMEY8nHoL99eGyLQIH-0" target="ZOqMEY8nHoL99eGyLQIH-19" edge="1">
                    <mxGeometry relative="1" as="geometry"/>
                </mxCell>
                <mxCell id="lQfqgUbQz27Wbsf5OLIO-12" style="edgeStyle=orthogonalEdgeStyle;rounded=0;orthogonalLoop=1;jettySize=auto;html=1;entryX=0.481;entryY=1;entryDx=0;entryDy=0;entryPerimeter=0;" parent="WIyWlLk6GJQsqaUBKTNV-1" source="ZOqMEY8nHoL99eGyLQIH-12" target="ZOqMEY8nHoL99eGyLQIH-3" edge="1">
                    <mxGeometry relative="1" as="geometry"/>
                </mxCell>
                <mxCell id="lQfqgUbQz27Wbsf5OLIO-13" value="1" style="text;html=1;align=center;verticalAlign=middle;resizable=0;points=[];autosize=1;strokeColor=none;fillColor=none;" parent="WIyWlLk6GJQsqaUBKTNV-1" vertex="1">
                    <mxGeometry x="660" y="200" width="30" height="30" as="geometry"/>
                </mxCell>
                <mxCell id="lQfqgUbQz27Wbsf5OLIO-14" value="- livros" style="text;html=1;align=center;verticalAlign=middle;resizable=0;points=[];autosize=1;strokeColor=none;fillColor=none;" parent="WIyWlLk6GJQsqaUBKTNV-1" vertex="1">
                    <mxGeometry x="630" y="550" width="60" height="30" as="geometry"/>
                </mxCell>
                <mxCell id="lQfqgUbQz27Wbsf5OLIO-15" value="*" style="text;html=1;align=center;verticalAlign=middle;resizable=0;points=[];autosize=1;strokeColor=none;fillColor=none;" parent="WIyWlLk6GJQsqaUBKTNV-1" vertex="1">
                    <mxGeometry x="690" y="550" width="30" height="30" as="geometry"/>
                </mxCell>
            </root>
        </mxGraphModel>
    </diagram>
</mxfile>